<svg width="20" height="20" viewBox="0 0 20 20" fill="none" xmlns="http://www.w3.org/2000/svg">
<g clip-path="url(#clip0_4203_3727)">
<path fill-rule="evenodd" clip-rule="evenodd" d="M16.9979 10.6269C17.3293 10.6282 17.599 10.3606 17.6003 10.0292C17.6016 9.69787 17.334 9.4282 17.0026 9.42691L10.6024 9.40193L10.6274 3.00174C10.6287 2.67037 10.3611 2.4007 10.0297 2.39941C9.69836 2.39811 9.42869 2.66569 9.42739 2.99706L9.40242 9.39725L3.00223 9.37228C2.67086 9.37099 2.40119 9.63857 2.39989 9.96993C2.3986 10.3013 2.66618 10.571 2.99755 10.5723L9.39774 10.5972L9.37277 16.9974C9.37147 17.3288 9.63905 17.5985 9.97042 17.5998C10.3018 17.6011 10.5715 17.3335 10.5728 17.0021L10.5977 10.6019L16.9979 10.6269Z" fill="white"/>
</g>
<defs>
<clipPath id="clip0_4203_3727">
<rect width="20" height="20" fill="white"/>
</clipPath>
</defs>
</svg>
