<svg width="20" height="20" viewBox="0 0 20 20" fill="none" xmlns="http://www.w3.org/2000/svg">
<g clip-path="url(#clip0_4203_3740)">
<path d="M16.8747 4.375L3.12469 4.37501" stroke="white" stroke-width="1.2" stroke-linecap="round" stroke-linejoin="round"/>
<path d="M8.125 8.125V13.125" stroke="white" stroke-width="1.2" stroke-linecap="round" stroke-linejoin="round"/>
<path d="M11.875 8.125V13.125" stroke="white" stroke-width="1.2" stroke-linecap="round" stroke-linejoin="round"/>
<path d="M15.6247 4.375V16.25C15.6247 16.4158 15.5588 16.5747 15.4416 16.6919C15.3244 16.8092 15.1655 16.875 14.9997 16.875H4.99969C4.83393 16.875 4.67496 16.8092 4.55775 16.6919C4.44054 16.5747 4.37469 16.4158 4.37469 16.25V4.375" stroke="white" stroke-width="1.2" stroke-linecap="round" stroke-linejoin="round"/>
<path d="M13.125 4.375V3.125C13.125 2.79348 12.9933 2.47554 12.7589 2.24112C12.5245 2.0067 12.2065 1.875 11.875 1.875H8.125C7.79348 1.875 7.47554 2.0067 7.24112 2.24112C7.0067 2.47554 6.875 2.79348 6.875 3.125V4.375" stroke="white" stroke-width="1.2" stroke-linecap="round" stroke-linejoin="round"/>
</g>
<defs>
<clipPath id="clip0_4203_3740">
<rect width="20" height="20" fill="white"/>
</clipPath>
</defs>
</svg>
